<?xml version="1.0" encoding="UTF-8"?>
<!DOCTYPE svg PUBLIC "-//W3C//DTD SVG 1.1//EN" "http://www.w3.org/Graphics/SVG/1.1/DTD/svg11.dtd">
<!-- Creator: CorelDRAW -->
<svg xmlns="http://www.w3.org/2000/svg" xml:space="preserve" width="86.6986mm" height="27.5166mm" version="1.1" style="shape-rendering:geometricPrecision; text-rendering:geometricPrecision; image-rendering:optimizeQuality; fill-rule:evenodd; clip-rule:evenodd"
viewBox="0 0 8669.86 2751.66"
 xmlns:xlink="http://www.w3.org/1999/xlink"
 xmlns:xodm="http://www.corel.com/coreldraw/odm/2003">
 <defs>
  <style type="text/css">
   <![CDATA[
    .str0 {stroke:#2B2A29;stroke-width:21.16;stroke-linecap:round;stroke-linejoin:bevel;stroke-miterlimit:22.9256}
    .fil1 {fill:none}
    .fil0 {fill:#2B2A29;fill-rule:nonzero}
   ]]>
  </style>
 </defs>
 <g id="Слой_x0020_1">
  <metadata id="CorelCorpID_0Corel-Layer"/>
  <path class="fil0" d="M652.3 2105.67c-56.44,0 -99.83,-15.52 -130.17,-46.57 -30.34,-31.04 -45.51,-74.79 -45.51,-131.23l0 -1174.75c0,-57.86 16.23,-101.96 48.68,-132.29 32.46,-30.34 78.32,-45.51 137.59,-45.51 47.98,0 86.78,9.52 116.41,28.57 29.64,19.05 56.45,50.45 80.44,94.19l416.98 751.42 416.99 -751.42c25.4,-43.74 52.56,-75.14 81.49,-94.19 28.93,-19.05 68.08,-28.57 117.47,-28.57 55.04,0 98.07,15.17 129.12,45.51 31.04,30.33 46.57,74.43 46.57,132.29l0 1174.75c0,56.44 -14.82,100.19 -44.45,131.23 -29.64,31.05 -73.38,46.57 -131.24,46.57 -56.44,0 -99.83,-15.52 -130.17,-46.57 -30.34,-31.04 -45.51,-74.79 -45.51,-131.23l0 -651.93 -296.33 516.46c-19.76,31.05 -40.57,54.33 -62.45,69.85 -21.87,15.53 -51.15,23.29 -87.84,23.29 -35.28,0 -64.2,-7.76 -86.78,-23.29 -22.58,-15.52 -43.04,-38.8 -61.39,-69.85l-294.21 -508 0 643.47c0,56.44 -14.82,100.19 -44.45,131.23 -29.64,31.05 -73.38,46.57 -131.24,46.57zm1894.43 -19.05c-135.47,0 -203.2,-67.03 -203.2,-201.08l0 -1090.09c0,-134.05 67.73,-201.08 203.2,-201.08l717.55 0c101.6,0 152.4,49.39 152.4,148.16 0,101.6 -50.8,152.4 -152.4,152.4l-548.22 0 0 283.64 501.65 0c101.6,0 152.4,50.09 152.4,150.28 0,100.19 -50.8,150.29 -152.4,150.29l-501.65 0 0 306.91 548.22 0c101.6,0 152.4,50.1 152.4,150.29 0,100.19 -50.8,150.28 -152.4,150.28l-717.55 0zm1653.12 19.05c-62.09,0 -110.07,-16.93 -143.94,-50.8 -33.86,-33.87 -50.8,-82.55 -50.8,-146.05l0 -996.95 -332.31 0c-107.25,0 -160.87,-52.92 -160.87,-158.75 0,-105.84 53.62,-158.75 160.87,-158.75l1054.1 0c107.24,0 160.87,52.91 160.87,158.75 0,105.83 -53.63,158.75 -160.87,158.75l-332.32 0 0 996.95c0,63.5 -16.58,112.18 -49.74,146.05 -33.16,33.87 -81.49,50.8 -144.99,50.8zm1011.77 0c-62.09,0 -110.07,-16.93 -143.93,-50.8 -33.87,-33.87 -50.8,-82.55 -50.8,-146.05l0 -1117.6c0,-63.5 16.93,-112.19 50.8,-146.05 33.86,-33.87 82.55,-50.8 146.05,-50.8l520.7 0c169.33,0 300.21,43.39 392.64,130.17 92.43,86.79 138.64,206.38 138.64,358.78 0,152.4 -46.21,271.99 -138.64,358.77 -92.43,86.79 -223.31,130.18 -392.64,130.18l-328.09 0 0 336.55c0,63.5 -16.58,112.18 -49.74,146.05 -33.16,33.87 -81.49,50.8 -144.99,50.8zm194.73 -831.85l260.35 0c152.4,0 228.6,-63.5 228.6,-190.5 0,-127 -76.2,-190.5 -228.6,-190.5l-260.35 0 0 381zm1244.61 812.8c-135.47,0 -203.2,-67.03 -203.2,-201.08l0 -1111.26c0,-64.91 16.93,-114.3 50.8,-148.16 33.86,-33.87 81.84,-50.8 143.93,-50.8 62.09,0 110.07,16.93 143.93,50.8 33.87,33.86 50.8,83.25 50.8,148.16l0 400.06 287.87 0c162.28,0 290.34,39.51 384.18,118.53 93.84,79.02 140.76,191.2 140.76,336.55 0,146.76 -46.92,259.64 -140.76,338.67 -93.84,79.02 -221.9,118.53 -384.18,118.53l-474.13 0zm1356.78 19.05c-62.09,0 -110.06,-16.93 -143.93,-50.8 -33.87,-33.87 -50.8,-83.26 -50.8,-148.17l0 -1132.42c0,-64.91 16.93,-114.3 50.8,-148.16 33.87,-33.87 81.84,-50.8 143.93,-50.8 62.09,0 109.72,16.93 142.88,50.8 33.16,33.86 49.74,83.25 49.74,148.16l0 1132.42c0,64.91 -16.23,114.3 -48.68,148.17 -32.46,33.87 -80.44,50.8 -143.94,50.8zm-1170.52 -313.27l234.95 0c71.97,0 124.54,-13.4 157.7,-40.21 33.16,-26.82 49.74,-67.74 49.74,-122.77 0,-53.62 -16.58,-93.84 -49.74,-120.65 -33.16,-26.81 -85.73,-40.22 -157.7,-40.22l-234.95 0 0 323.85z"/>
  <polygon class="fil1 str0" points="2273.67,135.08 6316.5,135.08 6316.5,139.31 2273.67,139.31 "/>
  <polygon class="fil1 str0" points="2303.3,2649.68 6346.13,2649.68 6346.13,2653.91 2303.3,2653.91 "/>
 </g>
</svg>
