<?xml version="1.0" encoding="UTF-8"?> <svg xmlns="http://www.w3.org/2000/svg" width="2600" height="2600" viewBox="0 0 2600 2600" fill="none"> <rect x="4" y="4" width="2592" height="2592" stroke="white" stroke-width="8"></rect> <path d="M253 1447.9H529.403V1505.33H253V1447.9ZM2251.88 1263.53L2339.02 1167.22H2274.08L2202.66 1247.27V1167.22H2150.91V1369.63H2202.91V1284.37L2279.28 1369.63H2346L2251.88 1263.53ZM559.846 1276.88C558.451 1314.99 553.631 1322.24 532.574 1322.24V1369.76H540.439C593.334 1369.76 605.893 1342.44 607.795 1281.58L610.079 1214.24H658.915V1369.63H710.669V1167.22H563.398L559.846 1276.88ZM335.198 1311.69H444.288L462.427 1369.63H522.934L441.37 1126.18C433.505 1102.68 424.372 1084 393.168 1084C361.963 1084 352.449 1102.68 344.077 1126.18L258.581 1369.63H315.409L335.198 1311.69V1311.69ZM390.504 1147.53H391.899L428.431 1262.9H351.561L390.504 1147.53ZM1599.5 1195.94H1541.78V1138.76H1675.73V1087.94H1487.49V1369.63H1599.5C1661.53 1369.63 1697.17 1338.63 1697.17 1281.96C1697.17 1228.21 1661.02 1195.94 1599.5 1195.94V1195.94ZM1596.83 1318.68H1541.78V1245.49H1596.83C1625.5 1245.49 1641.61 1258.2 1641.61 1282.08C1641.61 1305.97 1625.5 1318.68 1596.83 1318.68ZM1085 1162.52V1087.56H1033.37V1162.52C1006.26 1163.42 980.617 1175.05 962.065 1194.87C943.515 1214.7 933.575 1241.08 934.43 1268.24C933.507 1295.45 943.411 1321.91 961.966 1341.81C980.52 1361.7 1006.21 1373.4 1033.37 1374.33V1450.56H1085.13V1374.33C1098.58 1373.89 1111.82 1370.79 1124.08 1365.21C1136.34 1359.64 1147.38 1351.7 1156.57 1341.84C1165.76 1331.99 1172.92 1320.41 1177.64 1307.78C1182.36 1295.15 1184.54 1281.71 1184.07 1268.24C1184.61 1254.75 1182.47 1241.29 1177.76 1228.64C1173.05 1216 1165.88 1204.41 1156.66 1194.57C1147.44 1184.73 1136.35 1176.83 1124.05 1171.33C1111.74 1165.83 1098.47 1162.83 1085 1162.52V1162.52ZM1033.5 1325.41C1019.8 1323.9 1007.24 1317.07 998.537 1306.37C989.827 1295.67 985.664 1281.98 986.945 1268.24C985.829 1254.53 990.052 1240.92 998.731 1230.26C1007.41 1219.6 1019.87 1212.72 1033.5 1211.06V1325.41ZM1085.25 1325.41V1211.06C1098.88 1212.72 1111.34 1219.6 1120.02 1230.26C1128.7 1240.92 1132.92 1254.53 1131.81 1268.24C1133.02 1281.96 1128.83 1295.62 1120.14 1306.31C1111.44 1316.99 1098.92 1323.84 1085.25 1325.41ZM1378.02 1307.5V1239.27C1378.02 1189.46 1346.43 1158.33 1293.41 1158.33C1240.39 1158.33 1209.44 1191.36 1206.9 1225.8H1259.29C1261.06 1218.43 1268.93 1205.34 1293.28 1205.34C1297.84 1204.75 1302.46 1205.23 1306.78 1206.75C1311.12 1208.26 1315.04 1210.76 1318.24 1214.05C1321.43 1217.34 1323.83 1221.33 1325.22 1225.71C1326.62 1230.09 1326.98 1234.73 1326.27 1239.27H1275.53C1229.61 1239.27 1202.33 1263.53 1202.33 1303.68C1201.98 1313.27 1203.63 1322.82 1207.19 1331.72C1210.75 1340.62 1216.14 1348.67 1223 1355.35C1229.86 1362.04 1238.05 1367.2 1247.03 1370.51C1256.02 1373.83 1265.59 1375.21 1275.15 1374.58C1285.93 1375.15 1296.68 1373.05 1306.46 1368.46C1316.24 1363.87 1324.74 1356.94 1331.21 1348.28C1335.42 1355.42 1341.56 1361.21 1348.93 1364.99C1356.29 1368.76 1364.57 1370.37 1372.82 1369.63H1390.7V1322.87C1381.95 1322.87 1378.02 1318.68 1378.02 1307.5V1307.5ZM1326.27 1294.79C1326.48 1299.8 1325.63 1304.79 1323.77 1309.44C1321.91 1314.09 1319.1 1318.3 1315.51 1321.78C1311.91 1325.26 1307.62 1327.94 1302.91 1329.64C1298.21 1331.34 1293.2 1332.02 1288.21 1331.64C1269.56 1331.64 1254.85 1324.9 1254.85 1304.7C1254.85 1284.5 1271.21 1281.58 1285.04 1281.58H1326.27V1294.79V1294.79ZM839.547 1228.72H802.381V1167.22H750.627V1369.63H840.435C896.629 1369.63 916.544 1333.04 916.544 1298.48C916.798 1253.88 888.891 1228.72 839.547 1228.72ZM835.742 1325.41H802.381V1274.59H835.742C853.628 1274.59 864.41 1282.72 864.41 1300C864.41 1317.28 854.135 1325.41 835.742 1325.41V1325.41ZM1894.67 1307.5V1239.27C1894.67 1189.46 1863.09 1158.33 1810.07 1158.33C1757.04 1158.33 1726.09 1191.36 1723.55 1225.8H1775.94C1777.72 1218.43 1785.58 1205.34 1809.94 1205.34C1814.49 1204.75 1819.11 1205.23 1823.44 1206.75C1827.77 1208.26 1831.69 1210.76 1834.89 1214.05C1838.09 1217.34 1840.48 1221.33 1841.88 1225.71C1843.27 1230.09 1843.63 1234.73 1842.92 1239.27H1792.18C1746.26 1239.27 1718.99 1263.53 1718.99 1303.68C1718.63 1313.27 1720.28 1322.82 1723.85 1331.72C1727.4 1340.62 1732.79 1348.67 1739.65 1355.35C1746.51 1362.04 1754.71 1367.2 1763.69 1370.51C1772.67 1373.83 1782.25 1375.21 1791.8 1374.58C1802.68 1375.26 1813.57 1373.21 1823.47 1368.62C1833.37 1364.02 1841.97 1357.04 1848.5 1348.28C1852.65 1355.29 1858.67 1361 1865.89 1364.77C1873.11 1368.55 1881.23 1370.23 1889.35 1369.63H1907.23V1322.87C1898.22 1322.87 1894.67 1318.68 1894.67 1307.5ZM1843.17 1294.79C1843.36 1299.79 1842.5 1304.77 1840.64 1309.42C1838.77 1314.06 1835.95 1318.26 1832.37 1321.73C1828.78 1325.21 1824.49 1327.89 1819.79 1329.6C1815.1 1331.3 1810.1 1332 1805.12 1331.64C1786.47 1331.64 1771.76 1324.9 1771.76 1304.7C1771.76 1284.5 1788.12 1281.58 1801.95 1281.58H1843.17V1294.79V1294.79ZM2059.96 1242.57H1988.54V1167.22H1936.79V1369.76H1988.54V1289.96H2059.96V1369.63H2111.71V1167.22H2059.96V1242.57Z" fill="white"></path> </svg> 