<?xml version="1.0" encoding="UTF-8"?> <svg xmlns="http://www.w3.org/2000/svg" width="2600" height="2600" viewBox="0 0 2600 2600" fill="none"> <rect x="4" y="4" width="2592" height="2592" stroke="white" stroke-width="8"></rect> <path d="M574.915 1029L548.909 1100.36H909.156L935.161 1029H574.915ZM535.922 1136.01L509.917 1207.35H870.163L896.168 1136.01C896.168 1136.01 535.922 1136.01 535.922 1136.01ZM497.005 1243.02L471 1314.35H831.246L857.221 1243C857.236 1243.02 497.005 1243.02 497.005 1243.02Z" fill="white"></path> <path d="M1228.34 1336.74V1338.23C1244.52 1344.17 1259.98 1354.58 1268.07 1361.26C1293.08 1382.07 1304.13 1409.56 1304.13 1445.22C1304.13 1503.95 1273.23 1546.29 1222.44 1559.67C1206.97 1564.13 1190.8 1565.62 1160.63 1565.62H1006.87V1136.1H1143.01C1170.98 1136.1 1190.09 1137.58 1207 1142.03C1256.31 1155.41 1288.69 1189.59 1288.69 1243.83C1288.69 1272.83 1278.4 1297.36 1261.48 1313.69C1254.12 1321.12 1243.82 1330.04 1228.37 1336.73L1228.34 1336.74ZM1092.22 1382.07V1495.03H1151.09C1168.74 1495.03 1184.95 1493.54 1196.71 1482.4C1208.49 1471.25 1213.63 1457.12 1213.63 1438.55C1213.63 1424.45 1209.94 1411.07 1202.59 1401.4C1190.09 1385.79 1174.62 1382.07 1148.15 1382.07H1092.2H1092.22ZM1091.46 1307.75H1139.3C1154.01 1307.75 1161.38 1307.75 1168.72 1305.53C1188.6 1299.57 1201.11 1281.76 1201.11 1257.23C1201.11 1228.25 1187.86 1215.61 1168.72 1209.68C1160.62 1207.44 1152.55 1206.71 1136.35 1206.71H1091.46V1307.76V1307.75ZM1432.16 1565.63V1208.18H1309.29V1136.11H1650.72L1626.44 1208.18H1517.52V1565.63H1432.16ZM1677.21 1565.63V1136.11H1953.9L1929.61 1208.18H1761.85V1303.32H1830.3C1885.48 1303.32 1914.18 1316.7 1934.06 1333.78C1949.53 1347.17 1976 1376.87 1976 1435.6C1976 1493.56 1948.79 1525.5 1925.96 1541.87C1899.47 1560.43 1871.51 1565.65 1814.83 1565.65H1677.23H1677.21V1565.63ZM1761.84 1493.53H1825.85C1850.13 1493.53 1864.84 1487.59 1875.14 1474.2C1880.28 1467.53 1887.64 1455.61 1887.64 1433.33C1887.64 1411.05 1880.28 1395.43 1865.57 1384.28C1856.75 1377.61 1844.96 1373.91 1825.09 1373.91H1761.81V1493.53H1761.84Z" fill="white"></path> </svg> 