<?xml version="1.0" encoding="UTF-8"?> <svg xmlns="http://www.w3.org/2000/svg" width="2600" height="2600" viewBox="0 0 2600 2600" fill="none"> <rect x="4" y="4" width="2592" height="2592" stroke="white" stroke-width="8"></rect> <path d="M442.352 1094C328.24 1094 236 1186.08 236 1300C236 1413.92 328.24 1506 442.352 1506C556.463 1506 648.703 1413.92 648.703 1300C648.703 1186.08 556.463 1094 442.352 1094ZM413.824 1387.34L398.609 1431.95C341.553 1412.97 303.516 1358.86 303.516 1298.1C303.516 1237.35 341.553 1184.18 399.56 1164.25L414.775 1208.87C376.737 1221.21 352.013 1257.28 352.013 1297.15C350.111 1338.92 375.787 1375 413.824 1387.34V1387.34ZM484.192 1432.9L469.928 1387.34C508.917 1375 534.592 1338.92 534.592 1298.1C534.592 1257.28 508.917 1222.16 470.879 1209.82L486.094 1164.25C544.101 1183.24 583.089 1237.35 583.089 1298.1C583.089 1360.76 543.15 1414.87 484.192 1432.9V1432.9Z" fill="white"></path> <path d="M2331.85 1337.02L2354.67 1364.55C2330.9 1389.23 2301.42 1395.88 2277.64 1395.88C2254.82 1395.88 2238.66 1392.08 2224.39 1385.44C2193.96 1370.25 2178.75 1339.87 2178.75 1302.85C2178.75 1246.84 2216.78 1205.07 2272.89 1205.07C2335.65 1205.07 2366.08 1251.59 2361.33 1312.34H2218.69C2219.64 1327.53 2228.2 1341.77 2240.56 1349.36C2251.02 1356.01 2263.38 1358.86 2279.55 1358.86C2297.61 1358.86 2315.68 1353.16 2331.85 1337.02V1337.02ZM2219.64 1279.12H2320.44C2317.58 1257.28 2299.52 1238.29 2270.99 1238.29C2241.51 1238.29 2223.44 1259.18 2219.64 1279.12ZM1262.05 1390.18H1313.4L1232.57 1296.2L1312.45 1207.92H1262.05L1201.19 1278.17H1183.12V1207.92H1144.14V1389.23H1183.12V1317.09H1201.19L1262.05 1390.18V1390.18ZM1429.42 1241.14C1396.13 1241.14 1374.26 1266.77 1374.26 1299.05C1374.26 1331.33 1396.13 1356.96 1429.42 1356.96C1462.7 1356.96 1483.62 1332.28 1483.62 1299.05C1484.57 1267.72 1463.65 1241.14 1429.42 1241.14V1241.14ZM1436.07 1204.12C1487.42 1204.12 1525.46 1243.99 1525.46 1299.05C1525.46 1353.16 1488.37 1394.93 1436.07 1394.93C1411.35 1394.93 1391.38 1386.39 1377.11 1371.2V1466.13H1337.18V1208.87H1376.16V1230.7C1391.38 1212.66 1411.35 1204.12 1436.07 1204.12V1204.12ZM1954.33 1208.87H1791.72V1244.94H1853.53V1390.18H1893.47V1244.94H1955.28V1208.87H1954.33V1208.87ZM1116.56 1208.87H953V1244.94H1014.81V1390.18H1054.75V1244.94H1116.56V1208.87V1208.87ZM905.454 1300C905.454 1265.82 881.681 1241.14 848.398 1241.14C816.067 1241.14 791.342 1265.82 791.342 1300C791.342 1334.17 815.116 1358.86 848.398 1358.86C880.73 1358.86 905.454 1334.17 905.454 1300ZM750.452 1300C750.452 1245.89 792.293 1205.07 848.398 1205.07C903.552 1205.07 946.344 1245.89 946.344 1300C946.344 1354.11 904.503 1395.88 848.398 1395.88C793.244 1394.93 750.452 1354.11 750.452 1300V1300ZM2147.37 1208.87V1390.18H2108.38V1273.42L2013.29 1390.18H1981.91V1208.87H2020.89V1325.63L2115.99 1208.87H2147.37V1208.87ZM1764.14 1390.18H1725.15V1208.87H1764.14V1390.18ZM1663.34 1328.48C1663.34 1312.34 1651.93 1300.95 1636.72 1300.95H1596.78V1356.96H1636.72C1651.93 1356.96 1663.34 1344.62 1663.34 1328.48ZM1702.33 1328.48C1702.33 1364.55 1675.71 1390.18 1637.67 1390.18H1557.79V1208.87H1596.78V1267.72H1641.47C1679.51 1267.72 1702.33 1292.41 1702.33 1328.48Z" fill="white"></path> </svg> 