<?xml version="1.0" encoding="UTF-8"?> <svg xmlns="http://www.w3.org/2000/svg" width="2600" height="2600" viewBox="0 0 2600 2600" fill="none"> <rect x="4" y="4" width="2592" height="2592" stroke="white" stroke-width="8"></rect> <path d="M1436.37 1036L1159.85 1072.18V1154.15L1436.37 1129.43V1036Z" fill="white"></path> <path fill-rule="evenodd" clip-rule="evenodd" d="M1384.02 1223.84L1159.84 1072.27V1154.04L1229.74 1201.47L1243.49 1209.5C1218.38 1209.8 1206.35 1214.91 1194.27 1222.22C1159.76 1243.06 1141.84 1279.72 1141.84 1333.81C1141.84 1424.95 1192.07 1468.11 1287.75 1468.11C1383.44 1468.11 1433.91 1424.95 1433.91 1333.81C1433.91 1281.06 1416.83 1244.99 1384.02 1223.84ZM1287.75 1401.46C1240.31 1401.46 1225.39 1384.17 1225.39 1334.51C1225.39 1284.85 1240.2 1267.56 1287.75 1267.56C1335.3 1267.56 1349.86 1284.51 1349.86 1334.51C1349.86 1384.5 1335.55 1401.46 1287.75 1401.46ZM591.469 1334.51C591.469 1384.25 606.286 1401.46 653.832 1401.46C701.378 1401.46 715.948 1384.17 715.948 1334.51C715.948 1284.85 701.601 1267.56 653.832 1267.56C606.058 1267.56 591.469 1284.51 591.469 1334.51ZM507.923 1333.78C507.923 1242.64 558.488 1200.93 653.832 1200.93C749.18 1200.93 799.964 1242.64 799.964 1333.78C799.964 1424.92 749.737 1468.08 653.832 1468.08C557.928 1468.08 507.923 1424.92 507.923 1333.78ZM273.112 1240.05C282.209 1228.49 318.905 1200.6 364.052 1200.6C439.194 1200.6 480.631 1241.16 480.631 1333.31C480.631 1425.45 439.139 1466.41 363.799 1466.41C318.397 1466.41 281.956 1439.01 272.612 1427.21V1549.01H193V1206.57H273.112V1240.05ZM273.169 1333.11C273.169 1382.8 288.097 1400.06 335.532 1400.06V1399.95C383.301 1399.95 397.618 1383.05 397.618 1333.11C397.618 1283.18 383.078 1266.16 335.532 1266.16C287.986 1266.16 273.169 1283.42 273.169 1333.11ZM1981.72 1206.68V1299.66H1876.02V1206.68H1795.91V1458.32H1876.02V1364.05H1981.72V1458.32H2061.86V1206.68H1981.72ZM1578.32 1466.41C1502.92 1466.41 1461.48 1425.37 1461.48 1333.31C1461.48 1241.41 1502.89 1200.6 1578.04 1200.6C1623.15 1200.6 1659.85 1228.49 1669 1239.88V1206.4H1749.12V1458.34H1669.47V1427.21C1660.13 1439.01 1623.69 1466.41 1578.32 1466.41ZM1606.58 1265.99C1558.78 1265.99 1544.47 1282.95 1544.47 1332.94C1544.44 1382.68 1559.06 1399.9 1606.58 1399.9C1654.1 1399.9 1668.92 1382.88 1668.92 1332.94C1668.92 1283.01 1654.38 1265.99 1606.58 1265.99ZM1032.43 1365.33C1026.18 1391.64 1009.44 1401.46 973.16 1401.46C925.726 1401.46 910.822 1384.16 910.822 1334.5C910.822 1284.85 925.726 1267.55 973.16 1267.55C1009.44 1267.55 1026.18 1277.34 1032.46 1303.82L1116 1297.49C1103.53 1231.65 1054.61 1201.04 973.16 1201.04C877.813 1201.04 827.281 1242.75 827.281 1333.89C827.281 1425.03 877.504 1468.19 973.16 1468.19C1054.55 1468.19 1102.97 1436.95 1115.75 1371.75L1032.43 1365.33ZM2274.15 1326.17L2400.95 1458.29H2297.95L2187.51 1342.43V1348.51V1370.3V1458.29H2108.82V1206.68H2187.51V1315.98L2295.02 1206.68H2394.14L2274.15 1326.17Z" fill="white"></path> </svg> 