<?xml version="1.0" encoding="UTF-8"?> <svg xmlns="http://www.w3.org/2000/svg" width="2600" height="2600" viewBox="0 0 2600 2600" fill="none"> <rect x="4" y="4" width="2592" height="2592" stroke="white" stroke-width="8"></rect> <path d="M1195.63 1235.71L1241.58 1201.87H1089.22V1402.51H1241.58V1368.67H1132.75V1317.9H1224.65V1284.06H1132.75V1235.71H1195.63ZM1005.78 1235.71L1051.73 1201.87H877.609V1402.51H968.298C1019.08 1402.51 1048.11 1379.54 1048.11 1339.66C1048.11 1300.98 1021.5 1280.43 973.135 1280.43H919.93V1235.71H1005.78V1235.71ZM967.089 1313.07C994.901 1313.07 1006.99 1322.74 1006.99 1340.87C1006.99 1359 993.691 1368.67 967.089 1368.67H921.14V1313.07H967.089ZM1363.71 1201.87H1281.48V1402.51H1325.01V1345.7H1364.91C1418.12 1345.7 1450.77 1317.9 1450.77 1273.18C1450.77 1228.46 1416.91 1201.87 1363.71 1201.87V1201.87ZM1363.71 1311.86H1325.01V1234.5H1363.71C1391.52 1234.5 1407.24 1247.8 1407.24 1273.18C1406.03 1298.56 1391.52 1311.86 1363.71 1311.86ZM803.848 1359C791.756 1365.04 779.664 1368.67 766.363 1368.67C727.668 1368.67 698.648 1340.87 698.648 1302.19C698.648 1263.51 726.459 1235.71 766.363 1235.71C780.873 1235.71 794.174 1240.54 806.266 1247.8L837.705 1224.83L835.287 1222.41C817.149 1206.7 792.965 1198.24 765.154 1198.24C734.924 1198.24 708.321 1207.91 687.765 1227.25C668.418 1246.59 656.326 1273.18 657.535 1300.98C657.535 1328.78 668.418 1355.37 687.765 1375.92C708.321 1395.26 736.133 1406.14 763.944 1404.93C795.383 1404.93 821.986 1394.05 841.333 1374.71L813.521 1354.16L803.848 1359ZM2108.57 1284.06H2015.46V1201.87H1971.93V1402.51H2015.46V1320.32H2108.57V1402.51H2152.1V1201.87H2108.57V1284.06ZM1814.73 1201.87L1727.67 1402.51H1771.2L1788.13 1362.62H1880.03L1896.96 1402.51H1942.91L1858.27 1201.87H1814.73V1201.87ZM1802.64 1328.78L1836.5 1247.8L1867.94 1328.78H1802.64ZM2309.3 1298.56L2387.89 1201.87H2338.32L2273.02 1287.68H2248.84V1201.87H2205.3V1402.51H2248.84V1321.53H2276.65L2343.15 1402.51H2398.78L2309.3 1298.56ZM1636.98 1280.43H1583.78V1235.71H1697.44V1201.87H1540.25V1402.51H1630.94C1681.72 1402.51 1710.74 1379.54 1710.74 1339.66C1711.95 1300.98 1685.35 1280.43 1636.98 1280.43V1280.43ZM1629.73 1369.88H1583.78V1314.28H1629.73C1657.54 1314.28 1669.63 1323.94 1669.63 1342.08C1670.84 1360.21 1656.33 1369.88 1629.73 1369.88V1369.88Z" fill="white"></path> <path d="M518.248 1198.01C526.098 1208.29 532.744 1219.46 538.05 1231.3L387.519 1343.71L324.608 1303.76V1255.69L387.519 1295.65L518.248 1198.01Z" fill="white"></path> <path d="M260.402 1300.36C260.402 1298.21 260.454 1296.06 260.558 1293.93L222.432 1292.04C222.302 1294.8 222.225 1297.59 222.225 1300.4C222.208 1322.38 226.476 1344.14 234.782 1364.45C243.088 1384.75 255.27 1403.19 270.628 1418.72L297.672 1391.33C285.85 1379.4 276.471 1365.23 270.075 1349.62C263.679 1334 260.392 1317.27 260.402 1300.36Z" fill="white"></path> <path d="M387.484 1171.64C389.612 1171.64 391.727 1171.72 393.829 1171.82L395.737 1133.18C393.004 1133.05 390.252 1132.99 387.484 1132.99C365.779 1132.96 344.283 1137.28 324.229 1145.69C304.175 1154.1 285.96 1166.44 270.628 1182.01L297.671 1209.4C309.446 1197.42 323.443 1187.92 338.856 1181.44C354.27 1174.96 370.795 1171.63 387.484 1171.64Z" fill="white"></path> <path d="M387.485 1429.11C385.357 1429.11 383.242 1429.11 381.127 1428.94L379.219 1467.56C381.962 1467.7 384.717 1467.77 387.485 1467.77C409.182 1467.79 430.668 1463.47 450.71 1455.06C470.753 1446.64 488.957 1434.3 504.277 1418.73L477.286 1391.35C465.508 1403.32 451.513 1412.82 436.103 1419.3C420.693 1425.78 404.17 1429.11 387.485 1429.11Z" fill="white"></path> <path d="M459.12 1194.1L491.25 1170.1C461.883 1146.01 425.224 1132.9 387.435 1132.97V1171.63C413.024 1171.6 438.019 1179.43 459.12 1194.1Z" fill="white"></path> <path d="M552.733 1300.37C552.753 1290.31 551.885 1280.27 550.137 1270.37L514.568 1296.93C514.568 1298.07 514.568 1299.21 514.568 1300.37C514.577 1318.36 510.855 1336.15 503.644 1352.58C496.432 1369.02 485.891 1383.74 472.705 1395.78L498.36 1424.51C515.503 1408.83 529.202 1389.68 538.569 1368.29C547.937 1346.91 552.762 1323.77 552.733 1300.37Z" fill="white"></path> <path d="M387.485 1429.11C369.728 1429.12 352.167 1425.35 335.94 1418.04C319.713 1410.74 305.181 1400.06 293.286 1386.7L264.945 1412.68C280.419 1430.05 299.324 1443.93 320.435 1453.42C341.545 1462.91 364.389 1467.8 387.485 1467.77V1429.11Z" fill="white"></path> <path d="M302.266 1204.95L276.624 1176.23C259.476 1191.9 245.771 1211.05 236.4 1232.44C227.029 1253.83 222.199 1276.97 222.225 1300.37H260.403C260.395 1282.38 264.117 1264.59 271.329 1248.15C278.541 1231.72 289.08 1217 302.266 1204.95Z" fill="white"></path> </svg> 