<?xml version="1.0" encoding="UTF-8"?> <svg xmlns="http://www.w3.org/2000/svg" width="2600" height="2600" viewBox="0 0 2600 2600" fill="none"> <rect x="4" y="4" width="2592" height="2592" stroke="white" stroke-width="8"></rect> <path d="M327.757 1383.23C280.881 1383.23 242.692 1345.62 242.692 1299.44C242.692 1253.27 280.87 1215.64 327.735 1215.64H333.06V1164.68H327.746C252.378 1164.68 191 1225.16 191 1299.43C191 1374.19 252.378 1434.67 327.757 1434.67H333.071V1383.26H327.757V1383.23Z" fill="white"></path> <path fill-rule="evenodd" clip-rule="evenodd" d="M355.296 1237.56V1167.57C418.125 1179.94 464.992 1234.22 464.992 1299.45C464.992 1365.17 418.104 1419.44 355.296 1431.35V1361.36H327.746C292.963 1361.36 264.938 1333.73 264.938 1299.47C264.938 1265.19 292.963 1237.56 327.759 1237.56H355.296ZM619.146 1360.38C633.392 1360.43 647.204 1355.55 658.277 1346.58L680.023 1368.03C664.079 1382.29 642.821 1390.87 619.146 1390.87C567.919 1390.87 526.846 1349.44 526.846 1299.45C526.846 1249.46 567.919 1208.5 619.146 1208.5C642.157 1208.44 664.369 1216.93 681.477 1232.32L659.731 1253.73C648.515 1243.87 634.08 1238.45 619.146 1238.51C584.819 1238.51 557.29 1265.64 557.29 1299.45C557.29 1333.25 584.829 1360.38 619.146 1360.38ZM1573.54 1296.59L1641.67 1215.65H1668.73V1383.25H1641.67V1262.31L1573.54 1341.34L1504.44 1260.4V1383.27H1476.89V1215.65H1504.44V1216.6L1504.92 1215.65L1573.54 1296.59ZM794.069 1390.4C844.806 1390.4 886.369 1349.92 886.369 1299.45C886.369 1249.46 844.806 1208.5 794.069 1208.5C743.331 1208.5 701.782 1249.46 701.782 1299.45C701.782 1349.44 742.855 1390.4 794.069 1390.4ZM793.592 1238.51C827.909 1238.51 855.446 1265.64 855.446 1299.45C855.446 1333.25 827.909 1360.38 793.592 1360.38C759.275 1360.38 731.738 1333.25 731.738 1299.45C731.738 1265.64 759.275 1238.51 793.592 1238.51ZM1356.56 1390.4C1407.3 1390.4 1448.86 1349.92 1448.86 1299.45C1448.86 1249.46 1407.78 1208.5 1356.56 1208.5C1305.83 1208.5 1264.27 1249.46 1264.27 1299.45C1264.27 1349.44 1305.34 1390.4 1356.56 1390.4ZM1356.56 1238.51C1390.88 1238.51 1418.42 1265.64 1418.42 1299.45C1418.42 1333.25 1390.38 1360.38 1356.56 1360.38C1322.25 1360.38 1294.71 1333.25 1294.71 1299.45C1294.71 1265.64 1322.25 1238.51 1356.56 1238.51ZM1226.56 1215.65H1263.79L1179.7 1299.93L1262.81 1383.27H1226.09L1156.01 1313.25H1127.99V1383.27H1100.93V1215.65H1127.99V1286.12H1156.51L1226.56 1215.65ZM2373.3 1215.65H2410L2326.4 1299.93L2409.04 1383.27H2372.31L2302.73 1313.25H2274.22V1383.27H2247.16V1215.65H2274.22V1286.12H2302.73L2373.3 1215.65ZM2039.86 1383.25H2009.88L1993.47 1347.08H1905.51L1889.09 1383.27H1859.13L1934.03 1215.65H1964.95L2039.86 1383.25ZM1949.49 1249.93L1917.61 1320.4H1981.39L1949.49 1249.93ZM1050.67 1299.45C1060.53 1308.51 1066.14 1321.29 1066.14 1334.68C1066.14 1361.34 1044.39 1383.27 1017.32 1383.75H917.79V1215.65H1017.32C1044.2 1215.61 1066.05 1237.34 1066.14 1264.21C1066.14 1278.02 1059.85 1290.41 1050.67 1299.45ZM1016.85 1242.8H945.328V1285.62H1016.85C1028.93 1285.62 1038.58 1276.11 1038.58 1264.21C1038.58 1252.3 1028.93 1242.8 1016.85 1242.8ZM945.328 1356.59H1016.85C1028.94 1356.59 1038.59 1346.58 1039.07 1334.71C1039.07 1329.05 1036.7 1323.74 1032.84 1319.82C1028.91 1315.83 1023.42 1313.27 1017.32 1313.27H945.328V1356.59ZM2185.79 1286.12V1216.13H2213.34V1382.77H2185.79V1313.23H2086.74V1382.77H2059.2V1216.13H2086.74V1286.12H2185.79ZM1800.16 1286.12C1827.23 1286.12 1849.46 1308.01 1849.46 1334.68C1849.46 1361.34 1827.24 1383.27 1800.15 1383.72H1701.1V1215.65H1833.03V1242.78H1728.65V1286.12H1800.16ZM1728.66 1356.59H1800.18C1812.26 1356.59 1821.92 1346.58 1821.92 1334.71C1821.92 1323.26 1812.26 1313.27 1800.18 1313.27H1728.66V1356.59Z" fill="white"></path> </svg> 