<?xml version="1.0" encoding="UTF-8"?> <svg xmlns="http://www.w3.org/2000/svg" width="2600" height="2600" viewBox="0 0 2600 2600" fill="none"> <rect x="4" y="4" width="2592" height="2592" stroke="white" stroke-width="8"></rect> <path d="M1123.07 1237.99C1094.02 1237.99 1072.28 1248.76 1061.53 1266.56H1059.21V1243.46H1006.1V1488.14H1059.21V1410.58H1061.53C1072.23 1428.38 1094.02 1439.15 1123.07 1439.15C1177.58 1439.15 1220.81 1394.58 1220.81 1338.54C1220.81 1282.57 1177.58 1237.99 1123.07 1237.99ZM1112.32 1390.74C1082.69 1390.74 1059.21 1367.64 1059.21 1338.54C1059.21 1309.16 1082.69 1286.35 1112.32 1286.35C1142.83 1286.35 1166.01 1309.16 1166.01 1338.54C1166.01 1367.93 1142.54 1390.74 1112.32 1390.74Z" fill="white"></path> <path d="M2311.01 1252.36C2280.62 1252.36 2256.84 1263.88 2242.37 1283.9H2239.99C2243.94 1247.7 2264.41 1230.13 2308.44 1223.85L2385.56 1212.67V1163.74L2303.34 1175.43C2227.4 1186.02 2190.96 1226.29 2190.96 1298.85C2190.96 1351.34 2194.32 1367.92 2203.67 1387.76C2218.38 1419.59 2254.82 1439.14 2298.87 1439.14C2358.19 1439.14 2403.98 1397.01 2403.98 1341.85C2403.93 1288.78 2366.09 1252.36 2311.01 1252.36ZM2298.28 1390.5C2268.07 1390.5 2245.75 1369.84 2245.75 1341.85C2245.75 1313.57 2267.77 1292.92 2298.28 1292.92C2328.2 1292.92 2350.28 1313.57 2350.28 1341.85C2350.28 1369.84 2327.91 1390.5 2298.28 1390.5Z" fill="white"></path> <path d="M950.417 1186.01L890.624 1306.7L809.154 1186.01H745.642L863.893 1360.69L860.64 1367.33C855.525 1377.92 848.785 1383.62 833.212 1383.62H791.373V1433.9H839.139C875.573 1433.9 890.274 1424.64 905.5 1394.21L1010.04 1185.96H950.417V1186.01Z" fill="white"></path> <path d="M1527.62 1243.67L1518.56 1361.91C1517.17 1380.41 1510.95 1387.16 1496.25 1387.16H1483.23V1435.28H1514.9C1550.52 1435.28 1566.33 1418.99 1568.88 1385.01L1575.86 1293.13H1641.17V1433.66H1694.86V1243.67H1527.62Z" fill="white"></path> <path d="M1833.29 1286.9C1855.03 1286.9 1872.29 1299.12 1880.48 1315.47L1927.95 1297.55C1914.7 1261.42 1877.11 1238.03 1832.19 1238.03C1771.99 1238.03 1726.55 1281.49 1726.55 1338.63C1726.55 1395.72 1772.05 1439.24 1832.19 1439.24C1877.11 1439.24 1914.7 1415.85 1927.95 1379.71L1880.48 1361.79C1872.29 1378.09 1855.03 1390.36 1833.29 1390.36C1803.08 1390.36 1781.29 1368.89 1781.29 1338.69C1781.29 1308.38 1803.08 1286.9 1833.29 1286.9Z" fill="white"></path> <path d="M2095.66 1243.41L2013.2 1364.2V1243.41H1960.09V1433.68H2018.84L2100.78 1313.76V1433.68H2153.88V1243.41H2095.66Z" fill="white"></path> <path d="M1403.23 1266.51H1400.91C1390.22 1248.7 1368.43 1237.94 1339.37 1237.94C1284.86 1237.94 1241.63 1282.51 1241.63 1338.54C1241.63 1394.52 1284.86 1439.15 1339.37 1439.15C1368.43 1439.15 1390.16 1428.39 1400.91 1410.58H1403.23V1433.68H1456.34V1243.41H1403.23V1266.51ZM1350.18 1390.74C1319.96 1390.74 1296.49 1367.93 1296.49 1338.54C1296.49 1309.16 1319.67 1286.35 1350.18 1286.35C1379.82 1286.35 1403.29 1309.16 1403.29 1338.54C1403.23 1367.64 1379.82 1390.74 1350.18 1390.74Z" fill="white"></path> <path fill-rule="evenodd" clip-rule="evenodd" d="M403.646 1091.21C406.351 1091.35 409.162 1091.53 412.097 1091.76V1131.96C412.097 1309.09 418.841 1385.66 444.993 1503.73C411.578 1512.1 376.134 1512.1 342.777 1503.66C369.102 1384.73 375.895 1308.16 375.895 1131.96V1091.76C379.416 1091.48 382.738 1091.28 385.921 1091.17C388.732 1091.05 391.42 1091 394.033 1091C397.117 1091 400.299 1091.07 403.646 1091.21ZM595.935 1315.49C595.935 1246.6 558.455 1186.03 502.144 1151.52L502.903 1198.29C536.376 1227.1 557.581 1269 557.581 1315.49C557.581 1323.24 556.979 1330.85 555.825 1338.29C553.813 1351.27 550.144 1363.73 545.09 1375.49C520.86 1352.44 503.595 1325.33 492.853 1293.32C479.892 1254.57 476.867 1212.14 476.405 1160.31L476.463 1138.02C472.975 1136.52 469.438 1135.11 465.86 1133.79C457.517 1130.74 448.959 1128.21 440.261 1126.26L440.318 1160.24C441.539 1339.23 472.513 1413.01 518.592 1468.47C565.718 1432.86 595.935 1377.58 595.935 1315.49ZM347.674 1160.27L347.732 1126.3C341.07 1127.8 334.491 1129.63 328.035 1131.78C322.437 1133.63 316.93 1135.72 311.53 1138.05L311.588 1160.34C311.068 1212.13 308.1 1254.61 295.14 1293.35C284.455 1325.36 267.133 1352.42 242.902 1375.52C239.777 1368.24 237.18 1360.69 235.177 1352.94C232.085 1340.95 230.411 1328.42 230.411 1315.53C230.411 1268.97 251.559 1227.14 285.089 1198.33L285.848 1151.56C229.48 1185.99 192 1246.57 192 1315.53C192 1377.62 222.274 1432.89 269.342 1468.5C315.537 1413.11 346.454 1339.27 347.674 1160.27Z" fill="white"></path> </svg> 